<?xml version="1.0" standalone="no"?>
<!DOCTYPE svg PUBLIC "-//W3C//DTD SVG 20010904//EN"
 "http://www.w3.org/TR/2001/REC-SVG-20010904/DTD/svg10.dtd">
<svg version="1.0" xmlns="http://www.w3.org/2000/svg"
 width="1350.000000pt" height="1350.000000pt" viewBox="0 0 1350.000000 1350.000000"
 preserveAspectRatio="xMidYMid meet">
<metadata>
Created by potrace 1.14, written by Peter Selinger 2001-2017
</metadata>
<g transform="translate(0.000000,1350.000000) scale(0.100000,-0.100000)"
fill="#000000" stroke="none">
<path d="M6520 12100 c-41 -10 -316 -107 -610 -215 -3105 -1142 -4098 -1507
-4330 -1592 -278 -101 -340 -133 -420 -213 -77 -77 -110 -130 -145 -233 l-25
-76 0 -3029 c0 -2933 1 -3032 19 -3090 42 -138 157 -279 276 -344 81 -43 5173
-1915 5258 -1932 100 -21 304 -21 404 0 64 13 1493 536 4828 1765 209 78 407
156 440 174 118 66 230 209 269 344 14 49 16 350 16 3080 0 3330 5 3068 -62
3201 -47 93 -152 195 -248 242 -41 20 -212 87 -380 148 -322 118 -1109 407
-2000 735 -692 254 -1778 654 -2330 857 -239 88 -471 168 -515 179 -109 26
-337 26 -445 -1z m342 -921 c45 -10 664 -237 3093 -1134 198 -73 375 -139 393
-146 32 -14 -1 -26 -1780 -683 -997 -368 -1817 -669 -1823 -669 -5 0 -188 65
-405 146 -434 160 -2256 833 -3098 1144 -68 25 -120 49 -115 53 4 4 289 111
633 238 344 127 1109 409 1700 628 591 219 1104 405 1140 415 75 21 186 24
262 8z m-4162 -2344 c399 -147 728 -270 733 -274 4 -4 6 -1150 5 -2547 l-3
-2541 -590 218 c-324 120 -620 230 -657 244 -85 34 -154 95 -199 177 l-34 63
-3 2469 c-2 1979 0 2467 10 2464 7 -3 339 -125 738 -273z m8850 -669 l0 -944
-602 -225 c-332 -124 -1206 -451 -1943 -727 -737 -276 -1398 -524 -1470 -550
-71 -26 -142 -53 -157 -59 l-28 -11 0 958 0 957 378 139 c207 77 550 203 762
282 212 78 729 269 1150 424 421 156 1017 376 1325 491 308 114 566 208 573
208 9 1 12 -194 12 -943z m-6148 -328 l738 -273 0 -2547 0 -2548 -23 11 c-12
5 -347 130 -745 277 l-722 267 -3 2543 c-1 1557 2 2542 7 2542 5 0 342 -123
748 -272z m6148 -2725 c0 -512 -4 -842 -10 -881 -6 -35 -20 -83 -31 -108 -28
-58 -91 -129 -142 -158 -23 -13 -213 -87 -422 -164 -1865 -688 -3529 -1304
-3561 -1317 l-34 -14 0 948 0 948 993 372 c545 204 1483 555 2082 780 600 225
1098 409 1108 410 16 1 17 -44 17 -816z"/>
</g>
</svg>
